<svg xmlns="http://www.w3.org/2000/svg" viewBox="-158.199 -2.59954 437.1 513.2"><path d="M0 0C6.5847 3.8384 10.3832 9.4478 12.9314 16.573 14.1236 21.6619 13.5629 26.8206 13.3125 32 12.6486 46.3732 12.0447 60.7488 11.4492 75.125 11.3566 77.3555 11.2639 79.5859 11.1713 81.8164 10.9472 87.2109 10.7234 92.6055 10.5 98 11.2732 97.963 12.0465 97.926 12.8431 97.8879 31.69 96.9866 50.5373 96.0937 69.3851 95.2101 78.4998 94.7826 87.6145 94.3523 96.7288 93.9153 104.6763 93.5342 112.624 93.1585 120.572 92.7891 124.7773 92.5935 128.9824 92.3953 133.1872 92.1906 137.1521 91.9978 141.1173 91.8121 145.0828 91.6317 146.5312 91.5646 147.9795 91.4949 149.4277 91.4224 174.7938 90.1574 174.7938 90.1574 183.4414 97.6914 188.8161 103.2457 191.2762 109.0489 191.625 116.7656 191.2959 124.13 189.0627 130.0742 184.082 135.5625 177.0954 141.856 168.8705 142.9868 159.8561 143.386 159.2139 143.4154 158.5718 143.4449 157.9102 143.4752 155.7731 143.5723 153.6358 143.6642 151.4985 143.7561 149.9607 143.8249 148.4229 143.894 146.8851 143.9634 142.7204 144.1505 138.5556 144.3331 134.3907 144.5149 130.0344 144.7058 125.6783 144.9008 121.3221 145.0954 113.0776 145.4631 104.8329 145.8271 96.5882 146.1897 87.2 146.6028 77.8119 147.02 68.4239 147.4376 49.1161 148.2964 29.8081 149.1494 10.5 150 10.83 168.81 11.16 187.62 11.5 207 20.905 204.525 20.905 204.525 30.5 202 36.1798 200.9107 41.7877 199.8404 47.5 199 48.1416 198.9021 48.7831 198.8042 49.4441 198.7034 56.9525 197.6991 64.5043 197.8902 72.0625 197.9375 73.4668 197.9425 74.8711 197.9471 76.2754 197.9512 79.6836 197.9629 83.0918 197.9793 86.5 198 86.5865 196.7855 86.5865 196.7855 86.6748 195.5464 86.7563 194.4766 86.8379 193.4069 86.9219 192.3047 87.0393 190.7189 87.0393 190.7189 87.1592 189.1011 87.9604 181.8111 90.1222 176.1439 95.5 171 103.6183 165.726 111.0533 163.4771 120.7539 165.4609 127.5863 167.7339 132.626 172.0545 136.4375 178.125 140.1554 185.9981 138.9015 195.512 138.5 204 139.5621 204.2109 140.6242 204.4218 141.7185 204.6392 145.7488 205.443 149.7755 206.2635 153.8015 207.0884 155.5275 207.4398 157.2544 207.7869 158.9822 208.1294 174.451 211.2006 189.3809 215.1945 203.3125 222.8125 204.106 223.2399 204.8995 223.6673 205.717 224.1077 217.3173 230.4972 226.9553 238.9151 236.5 248 237.1458 248.593 237.7916 249.1859 238.457 249.7969 255.8075 266.2128 267.3033 289.1482 273.875 311.8125 274.1137 312.6351 274.3524 313.4577 274.5984 314.3052 277.9871 326.6762 278.9413 338.9834 278.9375 351.75 278.9386 352.5116 278.9396 353.2731 278.9407 354.0578 278.8679 390.281 266.1859 424.5175 242.5 452 241.6789 452.9552 240.8577 453.9104 240.0117 454.8945 229.3796 467.0008 217.1592 476.5251 203.5 485 202.8885 485.384 202.277 485.768 201.647 486.1636 178.1506 500.7362 145.6244 513.4637 117.5 510 109.72 507.502 105.1714 502.1125 101.5 495 99.3126 488.4377 99.183 479.7615 102.1875 473.4375 105.8898 467.3449 111.2816 462.2002 118.21 460.229 121.5274 459.4982 124.8528 458.8349 128.1875 458.1875 160.8003 451.3574 191.5045 436.4017 210.5 408 224.8946 385.8992 230.0909 359.0553 225.375 333.0625 221.1719 315.4487 213.43 300.7073 201.5 287 200.9715 286.3877 200.443 285.7754 199.8984 285.1445 184.3067 268.3622 162.4611 261.9089 140.6875 257.75 139.3013 257.4798 137.9152 257.209 136.5293 256.9375 133.1874 256.2854 129.8443 255.6397 126.5 255 126.3749 256.167 126.2498 257.334 126.1208 258.5364 125.6083 262.6139 124.6844 266.4583 123.5664 270.418 123.2767 271.448 123.2767 271.448 122.9811 272.4987 122.3495 274.7307 121.7073 276.9593 121.0625 279.1875 120.7298 280.3434 120.7298 280.3434 120.3904 281.5227 113.3263 305.9909 104.8736 329.7264 94.5 353 94.1255 353.8521 93.7511 354.7041 93.3652 355.582 82.934 379.1905 68.9747 400.4481 53.5 421 53.9198 421.5313 54.3395 422.0625 54.772 422.6099 61.2593 430.906 64.2929 436.7012 63.9453 447.5234 63.0673 454.3782 60.2404 459.6797 55.25 464.4375 49.8278 468.5894 43.3569 470.6159 36.5313 470.2773 27.2713 469.013 21.9339 464.4339 15.5 458 12.5839 458.3836 10.375 459.5069 7.875 461.0039 6.8307 461.6146 6.8307 461.6146 5.7654 462.2375 5.0178 462.6748 4.2702 463.112 3.5 463.5625-25.3319 479.9575-62.6985 491.2074-95.7026 482.4131-104.9369 479.7481-113.6651 476.7006-121.5 471-122.3263 470.4045-123.1526 469.8089-124.0039 469.1953-140.7899 456.4328-153.7037 437.6861-157.1865 416.6465-159.2297 399.3969-158.2706 381.6986-153.5 365-153.2369 364.0745-152.9737 363.1489-152.7026 362.1953-139.9189 318.5557-113.5953 281.6305-77.5 254-76.5229 253.2175-75.5458 252.4351-74.5391 251.6289-63.8529 243.1244-52.405 235.683-40.5 229-40.3569 216.3428-40.6173 203.7126-41 191.0625-41.394 178.0372-41.6377 165.0325-41.5 152-42.3233 152.0952-42.3233 152.0952-43.1632 152.1922-50.8995 153.0308-58.6429 153.4052-66.4141 153.7539-67.8379 153.8196-69.2618 153.8854-70.6856 153.9514-73.6523 154.0884-76.6191 154.2235-79.5859 154.3572-83.3695 154.5278-87.1529 154.7024-90.9362 154.8784-93.8703 155.0145-96.8044 155.1487-99.7385 155.2824-101.1331 155.3461-102.5276 155.4103-103.9221 155.475-130.4154 156.6997-130.4154 156.6997-138.875 149.8125-144.3415 144.6-147.1507 138.3666-147.75 130.875-147.2326 122.8558-145.1428 116.5598-139.5234 110.6914-132.3787 104.7191-123.8929 104.0249-114.8848 103.6111-113.6123 103.5511-112.3399 103.4911-111.0289 103.4293-109.6547 103.3681-108.2805 103.307-106.9063 103.2461-105.4724 103.1805-104.0386 103.1146-102.6049 103.0486-99.6026 102.9111-96.6002 102.7761-93.5977 102.6428-89.7933 102.4738-85.9893 102.2987-82.1853 102.1216-79.2218 101.9844-76.2582 101.8506-73.2946 101.7176-71.8947 101.6544-70.4948 101.5903-69.0949 101.525-59.5523 101.0827-50.0503 100.9236-40.5 101-40.5164 99.6231-40.5164 99.6231-40.5332 98.2184-40.7338 80.438-40.5329 62.6876-39.8083 44.9195-39.7283 42.9443-39.6526 40.9689-39.5814 38.9933-39.4781 36.1914-39.357 33.3908-39.2305 30.5898-39.1881 29.3573-39.1881 29.3573-39.1448 28.0998-38.7063 19.4146-36.8239 10.3563-30.5 4-21.5758-2.7237-10.4959-4.7607 0 0ZM31.625 254.5C30.3864 254.802 30.3864 254.802 29.1228 255.1101 24.5933 256.2758 20.6225 257.72 16.5 260 17.1986 270.7637 18.4257 281.4388 19.7148 292.1445 19.9329 293.9677 20.1509 295.7908 20.3688 297.6139 20.8233 301.4104 21.2799 305.2066 21.738 309.0027 22.3228 313.8515 22.9004 318.7011 23.476 323.5509 23.9229 327.3064 24.3745 331.0613 24.8274 334.8161 25.0423 336.6039 25.2556 338.392 25.4671 340.1802 25.7635 342.6804 26.0664 345.1797 26.3708 347.679 26.4556 348.4059 26.5403 349.1328 26.6277 349.8818 27.2252 354.7116 28.2439 359.2971 29.5 364 33.9721 358.6689 36.9451 352.8471 40.125 346.6875 40.433 346.0921 40.7411 345.4967 41.0584 344.8832 47.2515 332.87 52.6155 320.6044 57.5 308 57.8472 307.1163 58.1945 306.2327 58.5522 305.3223 63.14 293.5646 66.9167 281.6115 70.4375 269.5 70.6352 268.821 70.8329 268.142 71.0367 267.4424 73.6818 258.3161 73.6818 258.3161 75.5 249 60.5852 248.2651 46.0616 250.9567 31.625 254.5ZM-60.5 308C-61.1391 308.6118-61.7781 309.2236-62.4365 309.854-85.8371 332.3708-105.5368 362.9672-106.8987 396.4617-107.0858 407.1883-105.2444 415.1264-98.25 423.4375-90.1263 431.732-82.0461 433.4365-70.5 434-55.7427 433.3548-41.6718 428.2882-28.4375 422.0625-27.5692 421.6558-26.701 421.2491-25.8064 420.8301-20.2127 418.1042-15.3339 414.9155-10.5 411-11.7257 405.1661-13.1885 399.4685-14.8596 393.7473-24.9887 358.9383-30.4077 322.9689-34.5 287-42.1324 287-55.3076 303.0015-60.5 308Z" fill="#000000"/></svg>