<svg xmlns="http://www.w3.org/2000/svg" viewBox="0 0 24 24"><path d="M9 2a1 1 0 0 1 1 1v1h6a1 1 0 1 1 0 2h-1.776c-.837 2.357-2.26 4.562-3.86 6.523l2.332 2.259a1 1 0 1 1-1.392 1.436l-2.25-2.18c-1.47 1.607-3.019 3.035-4.403 4.221a1 1 0 0 1-1.302-1.518c1.378-1.18 2.9-2.587 4.323-4.157a34.857 34.857 0 0 1-1.204-1.557c-.573-.784-1.12-1.596-1.362-2.08a1 1 0 0 1 1.788-.894c.158.316.611 1.004 1.188 1.793.298.408.612.82.91 1.192 1.274-1.59 2.367-3.287 3.09-5.038H2a1 1 0 0 1 0-2h6V3a1 1 0 0 1 1-1Zm8.5 7.5a1 1 0 0 1 .934.644l2.85 7.478a.838.838 0 0 1 .016.044l1.134 2.978a1 1 0 0 1-1.869.712L19.669 19h-4.336l-.898 2.356a1 1 0 0 1-1.868-.712l1.134-2.978a.334.334 0 0 1 .017-.044l2.848-7.478A1 1 0 0 1 17.5 9.5ZM16.094 17h2.812L17.5 13.31 16.094 17Z"/></svg>